HIERARCHY
ROOT base
{
	OFFSET 0.0 0.0 0.0
	CHANNELS 6 Xposition Yposition Zposition Zrotation Yrotation Xrotation
	JOINT root
	{
		OFFSET 0 0 0
		CHANNELS 6 Xposition Yposition Zposition Zrotation Yrotation Xrotation
		JOINT chest
		{
			OFFSET 0 4.72302 0
			CHANNELS 3 Zrotation Yrotation Xrotation
			JOINT neck
			{
				OFFSET 0 4.47788 0
				CHANNELS 3 Zrotation Yrotation Xrotation
				End Site
				{
					OFFSET 0.0 0.0 0.0
				}
			}
			JOINT right_shoulder
			{
				OFFSET -0.481 4.87 3.6622
				CHANNELS 3 Zrotation Yrotation Xrotation
				JOINT right_elbow
				{
					OFFSET 0 -5.49576 0
					CHANNELS 3 Zrotation Yrotation Xrotation
					JOINT right_wrist
					{
						OFFSET 0 -5.17894 0
						CHANNELS 3 Zrotation Yrotation Xrotation
						End Site
						{
							OFFSET 0.0 0.0 0.0
						}
					}
				}
			}
			JOINT left_shoulder
			{
				OFFSET -0.481 4.87 -3.6622
				CHANNELS 3 Zrotation Yrotation Xrotation
				JOINT left_elbow
				{
					OFFSET 0 -5.49576 0
					CHANNELS 3 Zrotation Yrotation Xrotation
					JOINT left_wrist
					{
						OFFSET 0 -5.17894 0
						CHANNELS 3 Zrotation Yrotation Xrotation
						End Site
						{
							OFFSET 0.0 0.0 0.0
						}
					}
				}
			}
		}
		JOINT right_hip
		{
			OFFSET 0 0 1.69774
			CHANNELS 3 Zrotation Yrotation Xrotation
			JOINT right_knee
			{
				OFFSET 0 -8.43092 0
				CHANNELS 3 Zrotation Yrotation Xrotation
				JOINT right_ankle
				{
					OFFSET 0 -8.1974 0
					CHANNELS 3 Zrotation Yrotation Xrotation
					End Site
					{
						OFFSET 0.0 0.0 0.0
					}
				}
			}
		}
		JOINT left_hip
		{
			OFFSET 0 0 -1.69774
			CHANNELS 3 Zrotation Yrotation Xrotation
			JOINT left_knee
			{
				OFFSET 0 -8.43092 0
				CHANNELS 3 Zrotation Yrotation Xrotation
				JOINT left_ankle
				{
					OFFSET 0 -8.1974 0
					CHANNELS 3 Zrotation Yrotation Xrotation
					End Site
					{
						OFFSET 0.0 0.0 0.0
					}
				}
			}
		}
	}
	JOINT red_arrow
	{
		OFFSET 0 0 0
		CHANNELS 3 Zrotation Yrotation Xrotation
		End Site
		{
			OFFSET 0.0 0.0 0.0
		}
	}
	JOINT blue_arrow
	{
		OFFSET 0 0 0
		CHANNELS 3 Zrotation Yrotation Xrotation
		End Site
		{
			OFFSET 0.0 0.0 0.0
		}
	}
}
MOTION
Frames: 16
Frame Time: 0.0333333333333333
164.887997626513 0 -10.6555055230856 0 4.54555629286835 0 0 17.3301953554153 0 -2.57998029084859 0.613007678883298 -2.18084539727061 -3.08009005267685 -5.39630190661374 9.80037401357502 -0.91356939904208 2.59072662256274 -3.12138972822143 -13.7547622245203 -10.3403783614622 -11.709773199001 5.98862363312891 0 0 0 0 0 13.9033111926081 -30.1185511850373 25.1599490216742 32.2668074316645 0 0 0 0 0 43.8130456742142 -8.00442838589786 -7.76568728648365 -37.2673152815305 0 0 -1.38647753695557 -5.90233308711981 -2.10195991152739 -9.05840165203065 9.89882702585714 1.90991324261682 0.00184534502498687 0 0 12.0621225120149 -6.80851749240699 -1.74894612869499 0 0 0 0 0 0
165.300218997896 0 -10.5921833083034 0 4.63749423933136 0 0 17.1993710279465 0 -4.70987184745122 1.74092604861372 -0.67440378896055 -4.08276667894376 -4.14560897491015 8.38310333375457 -0.775421288197292 3.2365522125839 -3.20608604169368 -13.8750465356752 -11.749334080748 -10.8898814998049 4.63526134956543 0 0 0 0 0 14.3575218095445 -30.4353442396562 25.6071745223746 33.7081822522123 0 0 0 0 0 39.7354923149688 -9.76650959922104 -7.37808506299625 -27.5146811185133 0 0 -3.43294863873417 -4.14070131691763 -1.43059166434165 -8.40261942266694 9.63343105098226 0.91910388149421 0.00134164796385569 0 0 13.3952318339606 -7.85245270897827 -2.57617868066988 0 0 0 0 0 0
165.753931367397 0 -10.5300493324175 0 4.77954743624854 0 0 17.0359062671661 0 -7.11731130289259 2.67824404175032 1.1048742790255 -4.97394899049125 -2.72090606845635 6.91433730714452 -0.678717952200471 3.80044979397342 -3.36307141759623 -13.8242166793432 -13.0194794648426 -10.4528201689092 3.63637136977363 0 0 0 0 0 14.3291595080681 -30.4838650929285 25.8939830915961 34.767414818887 0 0 0 0 0 34.5822419943035 -10.8897037141086 -6.44096124942987 -17.9555223090205 0 0 -5.36009904332708 -2.05733124713303 -0.51782453264197 -7.66892211546524 9.45621101008791 -0.380305874269051 -0.0299419551658558 0 0 14.9380185571632 -8.79860158502685 -3.48940251290395 0 0 0 0 0 0
166.138584366441 0 -10.4180042443797 0 4.83160469049023 0 0 16.9743711829185 0 -10.6873475785195 0.971934208464134 1.7009798753731 -5.2764390895367 0.667671924154203 6.88161920475943 -1.00835996952683 4.2882394856223 -3.18071709709194 -13.0021048153444 -13.762641493243 -10.8470558061205 3.31699172418384 0 0 0 0 0 14.1146098992335 -30.1264818229463 25.3502404511269 35.1706589422008 0 0 0 0 0 32.7472307258795 -8.76306250409525 -3.94304679047053 -11.7688351427923 0 0 -9.67367794785224 -0.949104890210053 -1.4083110565799 -5.39630712386774 11.0305464185086 -0.667282457043907 -0.400037856426579 0 0 15.6122595719841 -9.81346764256001 -3.19744219967191 0 0 0 0 0 0
166.603887671232 0 -10.23530552499 0 4.84693001705316 0 0 17.1110965251923 0 -12.7478868798065 0.284003840810437 1.03145392211198 -4.44790588906759 1.22007338547775 6.56351115274073 -2.65178562364441 3.70241068421348 -2.32518443665147 -13.5171248668759 -14.4519323012567 -10.7311212917749 4.09966566249654 0 0 0 0 0 13.2231307208609 -30.0719124824687 24.7717834450272 35.3114223108056 0 0 0 0 0 31.3757261742812 -8.36253421388892 -1.96336847512158 -8.63732318193566 0 0 -9.573785723204 -1.41665160721744 -1.85005027102812 -3.43908308611012 11.8161802248125 0.637582671500575 -2.63729484044013 0 0 13.693589387181 -11.2615379549577 -0.693723022244346 0 0 0 0 0 0
167.184144341946 0 -10.0253827370703 0 4.79300520521047 0 0 17.1882164239883 0 -13.2323118973961 -0.997374592578616 -0.343553952877334 -3.50218506852705 -0.415743432394653 6.748002497514 -3.09484626840172 3.07325128987813 -2.07141360251763 -13.9356368291996 -6.98385431494004 -10.542929593297 5.00286981465834 0 0 0 0 0 11.9232253195919 -26.4105944598673 24.3639623199865 35.145838034757 0 0 0 0 0 29.5002471635015 -6.97484723723892 0.877140955086937 -8.47813025540288 0 0 -7.64695740817324 -2.47856056365876 -2.23293677681588 -2.60027172786964 12.8966946467355 2.36038475637393 -6.45301032923219 0 0 13.3676706958002 -9.49111546489621 2.9348212272338 0 0 0 0 0 0
167.774333640933 0 -9.82164840251207 0 4.64842284573249 0 0 17.2212341785431 0 -13.2372556852988 -2.67418330510533 -1.82998181545203 -2.45168124754913 -1.73321433171724 6.96409596967428 -2.94317492840457 2.59210743639553 -2.04040515669278 -13.8929361923706 -1.75045604185723 -10.2032093071537 5.8606984588428 0 0 0 0 0 10.8032684747815 -23.7180706048977 23.4855221457315 34.6395024512056 0 0 0 0 0 27.9543635725457 -5.49266154099647 3.84852865323724 -9.65568133529612 0 0 -5.07876038081245 -3.16615016486845 -2.72970788194467 -1.64099287809037 13.3036093027375 4.41411416415502 -11.4021658287103 0 0 13.1387759663733 -8.00214918368928 5.65605053893506 0 0 0 0 0 0
168.349974745512 0 -9.62726213634014 0 4.41956303580711 0 0 17.2251819849014 0 -12.9565400141008 -4.23803814263263 -3.25291305674793 -1.54556352889192 -2.64142025251588 7.03440559141838 -2.60043685494583 2.22017533002134 -2.16420770926714 -13.4080369519357 2.56763440777301 -10.1435860545815 6.55744861739674 0 0 0 0 0 9.58620088465392 -21.037655285771 22.1585643211527 33.649073795135 0 0 0 0 0 26.530192543142 -4.57752556247431 6.5595123130085 -11.36494044396 0 0 -2.30193086129619 -3.15592561336132 -3.33730535035767 0.398706196894113 13.2870142574191 7.26125909313635 -18.4271758995139 0 0 11.6051406605693 -7.94101529033941 5.86037715364902 0 0 0 0 0 0
168.909803253412 0 -9.46454343646765 0 4.10546990637963 0 0 17.2200491905212 0 -12.4020293070504 -5.82948000006162 -4.34593324302905 -0.667583568792949 -2.9220082952119 6.66832867936748 -2.26984768609735 1.93589916137737 -2.38302525034536 -12.2312633306361 6.48703673366308 -10.3154058947667 7.05912259683959 0 0 0 0 0 7.96209463534746 -18.0749320595123 20.5447600592797 32.2503432606702 0 0 0 0 0 24.8467835087616 -3.6070616185203 8.79270219155005 -12.8062239107277 0 0 0.249569617537404 -2.77124434728492 -3.87051365313898 3.60037940919317 12.4017642623355 10.0426719060744 -27.3858979017127 0 0 7.17797896088837 -9.39741364326647 5.50262770526442 0 0 0 0 0 0
169.461900135875 0 -9.34359105974436 0 3.73632738799838 0 0 17.226656460762 0 -11.4454793435015 -6.87558153667016 -5.01878799253265 0.129723403971375 -2.80230799563727 5.69305822437799 -1.98507997051897 1.64276779415495 -2.62514648774012 -10.2545003450454 9.91719538154721 -10.5707135779799 7.654842304738 0 0 0 0 0 6.03034077771798 -14.9828115113452 18.8597573803288 30.1697037149442 0 0 0 0 0 22.4491291539141 -2.9952320154469 10.1565352512458 -13.6128103413246 0 0 2.47314121310025 -2.04748176681504 -4.25882506664068 8.02026554427075 10.4696982916275 12.1405872268077 -37.1976439369017 0 0 1.04240120122681 -10.4399188067461 5.03236752615054 0 0 0 0 0 0
170.030274635553 0 -9.2691177919507 0 3.3592967575087 0 0 17.2528371930122 0 -9.97657964838876 -7.05635921993306 -5.26580515097263 0.888414510938057 -2.29187738633012 4.24242231057574 -1.79084954472367 1.33058538748485 -2.83113485387983 -7.68031361012219 12.744904328669 -10.9402429502614 8.65663810313481 0 0 0 0 0 3.84241640602719 -12.0740452032332 17.4520421099806 27.2699281197951 0 0 0 0 0 19.092007359134 -2.64028757430753 10.5570923029407 -13.7188464668681 0 0 4.45098352055903 -1.44248251434856 -4.43251771236245 13.4425378190164 7.9862999294272 13.5239463922915 -46.6867745243817 0 0 -5.91731592735916 -10.6305910900646 3.83645688837644 0 0 0 0 0 0
170.626878410578 0 -9.25160213559866 0 3.01393297713612 0 0 17.2978577852249 0 -8.05779189026167 -6.4976840537782 -4.99323069311841 1.60463286430169 -1.35494641871799 2.48989838414963 -1.66607786758172 1.02410830488514 -2.94996901523049 -4.64291150211431 15.3050123222085 -11.4878957172045 10.1063875893787 0 0 0 0 0 1.45386553578186 -9.15277074681921 16.5781793947053 23.7930903322391 0 0 0 0 0 14.8172463972906 -2.34310978023935 10.0139231009005 -13.0865434120015 0 0 6.19655573962301 -1.18184042909278 -4.36399030998958 19.609552718326 5.64968358943924 14.1245469158647 -54.9791808371945 0 0 -11.025106498037 -9.93246896558042 3.25149904321517 0 0 0 0 0 0
171.258601231873 0 -9.29425218552351 0 2.72427353925031 0 0 17.3560524821281 0 -5.79358656359649 -5.47558865863547 -4.13150967186986 2.23656314244578 -0.15158392747626 0.455279612846283 -1.63654360654509 0.744726764862994 -2.92257950262975 -1.20540431420477 18.0015249328224 -12.209352550877 12.0187261513137 0 0 0 0 0 -1.20922031804714 -6.01322539994727 16.3076789748638 19.9765496712179 0 0 0 0 0 9.61652203184471 -2.37015152848776 8.59220327354914 -11.5893702148029 0 0 7.64854639536936 -0.946064539234717 -4.0669645186097 26.2282621122104 3.8990638299179 13.9404946013426 -61.3378854638959 0 0 -12.9679435673038 -8.37005838320459 3.33480095208402 0 0 0 0 0 0
171.912140826136 0 -9.39510194957256 0 2.49009064233677 0 0 17.4068903326988 0 -3.46330963958108 -4.44138145135451 -2.78935982809246 2.75288266226676 1.22213624542112 -1.59991437372285 -1.57353439549491 0.550353092930659 -2.79367964846182 2.48411417704152 20.9147678452847 -13.1985338645516 14.2539644675819 0 0 0 0 0 -4.06971772999158 -2.65890773457016 16.3613938427168 16.1318242345867 0 0 0 0 0 4.04418602329077 -2.81918147179399 6.56062217383798 -9.62223048383598 0 0 8.92841543141003 -0.511549302058158 -3.53646862439661 32.9539871749446 2.68427182942319 13.0724107902089 -65.2767804261614 0 0 -12.4169970179052 -6.4405638617305 4.01557642222085 0 0 0 0 0 0
172.566554161161 0 -9.52996776327491 0 2.2977900543366 0 0 17.4296069383621 0 -1.36663862400361 -3.65267467457903 -1.31875732871836 2.98217961713574 2.5334026385764 -3.39792286948269 -1.40768292168542 0.437815804864234 -2.62196256777947 6.10183628888077 23.9030776001082 -14.3523430840656 16.7169955690856 0 0 0 0 0 -6.9053899987233 0.685553503625894 16.4442713140649 12.6265754214044 0 0 0 0 0 -1.32639855972834 -3.78643836503861 4.40303447071403 -7.54420519301484 0 0 10.1374720484334 0.277447510896087 -2.81590323417442 39.1389917437963 2.011411597152 11.8803581279608 -66.2660172142218 0 0 -9.91278764203891 -4.20437468763135 5.09812862580752 0 0 0 0 0 0
173.19005893413 0 -9.67066400231561 0 2.13646148152162 0 0 17.4128669977188 0 0.111781217342804 -3.06523706113618 -0.0548425958262312 2.78776871746287 3.48163473343704 -4.85798239160144 -1.08724497605613 0.474555246884629 -2.45457411598496 9.30742800394835 26.75447532309 -15.6303880505115 19.2139812485008 0 0 0 0 0 -9.50759717763471 3.76818069167004 16.3173699017602 9.78804869386367 0 0 0 0 0 -5.78219302461532 -5.15772055807771 2.55886393329961 -5.78666347710809 0 0 11.4025027325423 1.28211695154498 -1.98774269368955 44.0750174931893 1.88538372544353 10.5548939162578 -64.0303050535799 0 0 -6.51516121391719 -2.06036380892765 5.63721024234112 0 0 0 0 0 0
